<svg id="OBJECTS" xmlns="http://www.w3.org/2000/svg" viewBox="0 0 243.67 273.55"><defs><style>.cls-1{fill:#231f20;}.cls-2{font-size:184.4px;fill:#f7941d;font-family:Poppins-BlackItalic, Poppins;font-weight:800;font-style:italic;letter-spacing:-0.05em;}</style></defs><title>go</title><path class="cls-1" d="M338.28,190.16c-21.79-12.58-55.7,5.35-75.74,40.06s-18.61,73,3.18,85.62c16.14,9.32,38.92,1.89,57.79-16.68-7.45,4-14.62,4.83-20.08,1.67-12.28-7.09-11.32-31.74,2.14-55.06s34.34-36.48,46.62-29.39a13.84,13.84,0,0,1,2.84,2.2C353.32,205.87,347.71,195.6,338.28,190.16ZM297.42,304.58c5.46,3.16,12.62,2.3,20.08-1.67q-3.39,3.33-6.92,6.16c-6,2.11-11.55,2.07-15.92-.6-10.71-6.53-10.72-26.53-.9-47C286.16,280.76,287.24,298.71,297.42,304.58Zm-26.65-70.4c-18.19,31.5-17.9,65.71.65,76.42a24.07,24.07,0,0,0,10.12,3.1,25.51,25.51,0,0,1-15.12-3.1,23.9,23.9,0,0,1-6.7-5.81c-8.84-14.79-8.45-38.35,1.5-61.88,1.36-2.92,2.88-5.84,4.55-8.73,15.15-26.25,38.35-42.31,56.39-40.75C305,194.85,284.55,210.3,270.77,234.18Z" transform="translate(-161.29 -160.33)"/><path class="cls-1" d="M277.53,319.63v.11h1Z" transform="translate(-161.29 -160.33)"/><path class="cls-1" d="M387.64,190.16a29.67,29.67,0,0,0-10.46-3.62c9.44,15.51,12.76,44.54-5.8,72.06l.71-1.44c.16-.35.33-.69.5-1,.41-.89.82-1.79,1.22-2.7s.85-2,1.24-3c10.13-25.44,6-53.83-4.48-64.28h-8.95c12.81,12.65,19,51.83-7.41,84.65l.87-1.42.61-1c.51-.88,1-1.77,1.51-2.68s1.06-2,1.56-3c15.76-31.2,10.73-63.57-4.64-76.52H339.77c.81.38,1.62.79,2.41,1.24C364,200,366,237.62,347.25,272.57c-.58,1.07-1.17,2.14-1.79,3.21s-1.14,1.93-1.72,2.88l-.7,1.11c-.32.51-.65,1-1,1.53-13.16,20.2-30.88,34-47.53,38.44h33.28c20.77,1.71,46.56-15.46,63-44C410.86,241.07,409.44,202.74,387.64,190.16Z" transform="translate(-161.29 -160.33)"/><path class="cls-1" d="M338.28,190.16c-21.79-12.58-55.7,5.35-75.74,40.06s-18.61,73,3.18,85.62,55.7-5.35,75.74-40.06S360.08,202.74,338.28,190.16ZM332.93,273c-18.18,31.5-48,48.35-66.51,37.64s-18.84-44.92-.65-76.42,48-48.36,66.51-37.65S351.12,241.45,332.93,273Z" transform="translate(-161.29 -160.33)"/><text class="cls-2" transform="translate(0 157.94)">G</text></svg>